<svg width="298" height="56" xmlns="http://www.w3.org/2000/svg">
    <path d="M25.182 29.529h28.694c.012 8.821 0 17.643 0 26.471-9.538-1.51-19.095-2.91-28.651-4.279-.012-7.396-.03-14.79-.043-22.192zM1 29.235c7.201-.026 14.402.096 21.602.083 0 7.356.018 14.713.007 22.07C15.414 50.26 8.207 49.277 1 48.247V29.235zm195.559-8.79h3.791c1.502 5.79 2.956 11.592 4.488 17.374.309 1.087.424 2.214.533 3.34 1.714-6.972 3.882-13.818 5.826-20.72l3.313.019c1.665 6.909 3.737 13.715 5.117 20.694 1.424-6.941 3.446-13.728 5.027-20.63a87.1 87.1 0 0 1 3.657-.096c-2.307 8.106-4.517 16.236-6.836 24.328h-3.768c-1.635-6.59-3.755-13.05-5.081-19.71-1.58 6.653-3.773 13.127-5.578 19.71h-3.64c-2.277-8.105-4.602-16.192-6.85-24.309zm-82.23.006c1.21-.006 2.422-.006 3.633-.006v24.309h-3.633c0-8.105.006-16.204 0-24.303zm123.14-.62c2.27-.166 4.584.064 6.722.947.593 1.19.133 2.75.273 4.087-2.55-1.682-6.063-2.757-8.83-1.042-1.896 1.087-1.987 4.304-.14 5.501 2.647 1.81 6.008 2.284 8.358 4.613 2.592 2.635 1.962 7.702-1.072 9.678-3.688 2.482-8.545 2.24-12.409.346 0-1.433-.006-2.866-.03-4.3 2.75 2.214 6.613 3.442 9.902 1.869 1.92-1.017 2.016-4.133.327-5.444-2.647-2.06-6.274-2.386-8.624-4.958-2.32-2.47-1.902-7.011.685-9.103 1.337-1.298 3.148-1.689 4.837-2.194zm-55.76 3.493c-5.336 1.733-6.238 9.096-4.573 13.939 1.327 4.299 6.499 6.205 10.21 4.196 2.514-1.221 3.659-4.215 3.901-6.96.272-3.205.03-6.838-2.113-9.34-1.817-2.162-4.893-2.629-7.425-1.835zm.654-3.48c3.24-.301 6.831.236 9.266 2.712 2.75 2.68 3.567 6.845 3.416 10.651-.042 3.423-1.242 6.896-3.616 9.282-4.954 4.76-14.153 3.717-17.297-2.827-2.47-5.482-1.974-13.07 2.538-17.234 1.618-1.446 3.665-2.105 5.693-2.584zM127.61 24.36c2.077-3.909 6.922-5.706 10.828-3.896 3.107 1.28 4.264 5.079 4.36 8.316.17 5.322.03 10.65.073 15.974-1.21 0-2.422 0-3.633-.006-.056-5.112.127-10.236-.086-15.347-.097-2.533-1.114-5.578-3.724-6.224-3.809-1.216-7.612 2.411-7.734 6.39-.11 5.06-.006 10.127-.043 15.187h-3.633c.006-8.105.006-16.204 0-24.309h3.64c-.006 1.305-.012 2.61-.048 3.915zm-57.6-13.517c1.362.006 2.725.006 4.094.026 2.126 8.111 4.221 16.235 6.353 24.353a35.75 35.75 0 0 1 .993 5.207c2.216-9.96 5.244-19.709 7.788-29.586 1.18.006 2.362.006 3.543.013 1.872 7.03 3.621 14.093 5.475 21.13.685 2.801 1.569 5.565 1.847 8.462 2.005-9.947 4.863-19.697 7.134-29.58 1.344-.019 2.689-.019 4.033-.019-2.93 11.317-5.983 22.601-8.95 33.905h-4.367c-2.15-8.117-4.281-16.243-6.455-24.347-.364-1.312-.516-2.668-.63-4.024-.17 1.17-.327 2.354-.613 3.499-2.198 8.265-4.427 16.517-6.564 24.795-1.453.083-2.907.09-4.36.077-3.12-11.297-6.214-22.607-9.321-33.911zm215.877 2.885c-3.228 1.382-4.154 5.412-4.603 8.687-.472 4.568-.581 9.276.449 13.773.514 2.214 1.598 4.561 3.675 5.533 2.356 1.254 5.506.173 6.747-2.284 1.98-3.613 2.03-7.951 2.053-12.013-.078-3.96-.23-8.22-2.301-11.662-1.23-2.098-3.876-2.942-6.02-2.034zm.557-3.435c3.15-.557 6.644.659 8.516 3.486 2.658 3.966 2.907 9.052 3.04 13.741-.09 4.952-.606 10.318-3.597 14.355-2.755 3.82-8.4 4.715-12.095 1.907-2.997-2.284-4.172-6.27-4.705-9.96-.606-5.483-.551-11.234 1.253-16.467 1.138-3.55 3.949-6.608 7.588-7.062zm-14.528.013c.32-.045.963-.141 1.277-.186.019 11.54.007 23.087.007 34.634h-3.585c.023-9.608-.061-19.223.042-28.832-2.284 1.67-4.748 3.096-7.431 3.89.017-1.28.03-2.56.042-3.839 3.513-1.26 6.71-3.294 9.648-5.667zM156.77 23.1c-2.907.486-4.875 3.288-5.42 6.186-.715 3.493-.588 7.535 1.496 10.504 2.253 3.16 7.225 3.23 9.636.243 1.64-1.804 2.107-4.388 2.12-6.807.017-2.552.223-5.43-1.382-7.56-1.417-2.131-4.064-3.09-6.45-2.566zm7.825-14.163c1.21-.007 2.422-.007 3.633-.007v35.824h-3.62a55.85 55.85 0 0 0-.104-3.896c-2.622 4.976-9.635 6.077-13.644 2.386-2.864-2.603-3.737-6.838-3.585-10.67.03-3.89 1.241-8.023 4.172-10.562 3.81-3.314 10.562-3.122 13.172 1.746-.049-4.944-.006-9.883-.024-14.821zm-49.485.262c1.89-1.273 4.306 1.382 3.204 3.378-.533 1.465-2.483 2.021-3.586.946-1.38-.991-1.187-3.627.382-4.324zM1 7.964c7.183-1.17 14.396-2.181 21.609-3.134.006 7.337.006 14.668.012 22.006-7.207-.007-14.414.108-21.621.09V7.963zm24.225-3.57A1972.544 1972.544 0 0 1 53.876 0c.006 8.847 0 17.688.006 26.535-9.55.038-19.1.192-28.657.224-.006-7.46-.006-14.912 0-22.364z" fill="#FFF" fill-rule="evenodd"/>
</svg>
